<svg xmlns="http://www.w3.org/2000/svg" width="1573" height="1574"><clipPath id="a"><path d="M-6.16-18.47h6592.38v1611.52H-6.16z"/></clipPath><g clip-path="url(#a)"><ellipse cx="786.7" cy="787.3" fill="#fff" rx="786.1" ry="786.4"/><path fill="#e60023" d="M1572.9 787.3c0 434.3-352 786.4-786.2 786.4-81 0-159.2-12.3-232.7-35.1 32-52.2 79.9-137.9 97.7-206.2 9.5-36.8 49-186.9 49-186.9 25.6 48.9 100.5 90.3 180.2 90.3 237.1 0 407.9-218.1 407.9-489.1 0-259.8-211.9-454.2-484.7-454.2-339.2 0-519.4 227.8-519.4 475.9 0 115.3 61.4 258.9 159.6 304.6 14.9 7 22.8 3.9 26.3-10.5 2.6-10.9 15.8-64.3 21.8-89.2 1.9-7.9 1-14.7-5.4-22.5-32.5-39.4-58.5-111.9-58.5-179.5 0-173.4 131.2-341.3 354.9-341.3 193.2 0 328.4 131.7 328.4 320 0 212.7-107.4 360.1-247.1 360.1-77.2 0-135-63.9-116.4-142.1 22.1-93.5 65.1-194.4 65.1-261.9 0-60.4-32.4-110.7-99.5-110.7-78.9 0-142.2 81.6-142.2 191 0 69.6 23.5 116.7 23.5 116.7S517.3 1232.6 503 1294c-15.8 67.9-9.6 163.6-2.7 225.8C207.8 1405.2.6 1120.4.6 787.3.6 353 352.6.9 786.7.9c434.2 0 786.2 352.1 786.2 786.4"/></g></svg>